<svg id="Layer_1" data-name="Layer 1" xmlns="http://www.w3.org/2000/svg" viewBox="0 0 91.4 91.4"><defs><style>.cls-1{fill:#4abaeb;}.cls-2{fill:#fff;}</style></defs><title>quality</title><circle class="cls-1" cx="45.7" cy="45.7" r="45.7"/><path class="cls-2" d="M156,331.64l-8.18-19.75a1,1,0,0,0-1.83.76l7.4,17.85-6.75-2a1,1,0,0,0-1.13.48l-3.39,6.15L134.17,316a19.88,19.88,0,1,0-19.7-7.66l-9.65,23.29a1,1,0,0,0,.18,1,1,1,0,0,0,1,.29l8-2.3,4,7.26a1,1,0,0,0,.87.51h0a1,1,0,0,0,.86-.6l7.64-18.45a1,1,0,1,0-1.82-.76l-6.86,16.56L115.31,329a1,1,0,0,0-1.14-.48l-6.74,2,8.47-20.44a19.8,19.8,0,0,0,14.5,6.31c.59,0,1.18,0,1.76-.08l8.91,21.53a1,1,0,0,0,.86.6h0a1,1,0,0,0,.87-.51l4-7.26,8,2.3a1,1,0,0,0,1-.29,1,1,0,0,0,.18-1ZM112.51,296.5a17.9,17.9,0,1,1,17.89,17.9,17.92,17.92,0,0,1-17.89-17.9Z" transform="translate(-84.7 -261.83)"/><path class="cls-2" d="M141.8,292.8a1,1,0,0,0-.78-.66L134.39,291l-3.11-6a1,1,0,0,0-1.75,0l-3.11,6-6.63,1.12a1,1,0,0,0-.78.66,1,1,0,0,0,.24,1l4.71,4.8-1,6.65a1,1,0,0,0,.39.95,1,1,0,0,0,1,.08l6-3,6,3a1,1,0,0,0,.44.1,1,1,0,0,0,.58-.18,1,1,0,0,0,.39-.95l-1-6.65,4.71-4.8A1,1,0,0,0,141.8,292.8Zm-6.7,4.77a1,1,0,0,0-.27.83l.78,5.27-4.77-2.37a1,1,0,0,0-.44-.11,1,1,0,0,0-.44.11l-4.76,2.37.78-5.27a1,1,0,0,0-.27-.83l-3.73-3.8,5.25-.88a1,1,0,0,0,.71-.52l2.46-4.72,2.47,4.72a1,1,0,0,0,.71.52l5.25.88-3.73,3.8Z" transform="translate(-84.7 -261.83)"/><path class="cls-2" d="M145.34,297.5a1,1,0,0,0-1.11.85,14,14,0,1,1,0-3.69,1,1,0,1,0,2-.26,15.93,15.93,0,1,0,0,4.21,1,1,0,0,0-.85-1.11Z" transform="translate(-84.7 -261.83)"/></svg>