<svg id="Layer_1" data-name="Layer 1" xmlns="http://www.w3.org/2000/svg" viewBox="0 0 91.4 91.4"><defs><style>.cls-1{fill:#4abaeb;}.cls-2{fill:#fff;}</style></defs><title>supply</title><circle class="cls-1" cx="45.7" cy="45.7" r="45.7"/><path class="cls-2" d="M63.58,23.23,45.7,18,27.82,23.23,20.6,32.86h2.82V66.67h8.7V40H59.28V66.67H68V32.86H70.8Zm-5.5,0,4.27,1.26v6.85H58.08Zm-5.81-1.7,4.27,1.25v8.56H52.27Zm-5.8-1.71,4.27,1.25V31.32H46.47Zm-5.81,1.25,4.27-1.25V31.32H40.66Zm-5.8,1.71,4.27-1.25v9.81H34.86Zm-5.81,1.71,4.27-1.26v8.11H29.05ZM27.51,26.2v5.12H23.67ZM66.45,65.13H60.81V38.49H30.59V65.13H25V32.86h41.5V65.13ZM63.89,31.32V26.2l3.84,5.12Z" transform="translate(0 0)"/><path class="cls-2" d="M41.35,46.69H33.66v20H44.42v-20Zm-3.08,1.54h1.54v1.53H38.27Zm4.61,16.9H35.2V57.45h1.54v3.07h4.61V57.45h1.53v7.68ZM38.27,59V57.45h1.54V59Zm4.61-3.07H35.2V48.23h1.54V51.3h4.61V48.23h1.53Z" transform="translate(0 0)"/><path class="cls-2" d="M54.66,55.91H47V66.67H57.74V55.91Zm-3.07,1.54h1.54V59H51.59Zm4.61,7.68H48.52V57.45h1.53v3.07h4.61V57.45H56.2v7.68Z" transform="translate(0 0)"/><rect class="cls-2" x="48.01" y="35.42" width="1.54" height="1.54"/><rect class="cls-2" x="44.93" y="35.42" width="1.54" height="1.54"/><rect class="cls-2" x="41.86" y="35.42" width="1.54" height="1.54"/></svg>