<svg id="Layer_1" data-name="Layer 1" xmlns="http://www.w3.org/2000/svg" viewBox="0 0 91.4 91.4"><defs><style>.cls-1{fill:#4abaeb;}.cls-2{fill:#fff;}</style></defs><title>tree</title><circle class="cls-1" cx="45.7" cy="45.7" r="45.7"/><path class="cls-2" d="M158.26,290.82a6.37,6.37,0,0,0-6.36-6.36h0a3.7,3.7,0,0,0-3.65-3.12,3.39,3.39,0,0,0-.55,0,3.68,3.68,0,0,0-4.92-1.55,5,5,0,0,0-7,1,6.36,6.36,0,0,0-10,3.85,4.46,4.46,0,0,0-3.61,1.71,6.37,6.37,0,0,0-8.58,1.79,4.31,4.31,0,0,0-1.85-.41,4.42,4.42,0,0,0-4.41,4.41,5.49,5.49,0,0,0,0,.7,7,7,0,0,0,0,13.27,2.68,2.68,0,0,0,0,.4,3.74,3.74,0,0,0,6.5,2.53,4.83,4.83,0,0,0,2.3.59,4.7,4.7,0,0,0,2.39-.64,6.36,6.36,0,0,0,7.41,1.74c3.12,2.32,4.74,3.48,5.64,4.06a11.65,11.65,0,0,1-.42,1.12,9.12,9.12,0,0,1-3.9,4.22,11.35,11.35,0,0,0-4.75,14.72l.23.48H116a1.08,1.08,0,0,0,0,2.16h28.17a1.08,1.08,0,1,0,0-2.16H134.6a11,11,0,0,1,.48-13.55,13.19,13.19,0,0,0,3.08-8.47c0-.14,0-.27,0-.41l4.72-3.43a5.59,5.59,0,0,0,4.76-3.41h.2a5.56,5.56,0,0,0,5.56-5.47,4.42,4.42,0,0,0,3.19-4.27,4.12,4.12,0,0,0-.14-1.11A6.36,6.36,0,0,0,158.26,290.82Zm-30.47,18.69a6.26,6.26,0,0,0,1.26-1.74,3.54,3.54,0,0,0,.55-.18,3.8,3.8,0,0,0,.49-.26,3.65,3.65,0,0,0,1.13.61l.5,2.31a9.06,9.06,0,0,1,.2,2.25C130.88,311.77,129.34,310.65,127.79,309.51Zm5.64,10.94A13.21,13.21,0,0,0,132,335.39h-7l-.65-1.4a9.18,9.18,0,0,1,3.84-11.91,11.33,11.33,0,0,0,5.57-12.28l-.39-1.82.42-.16a3.29,3.29,0,0,0,.49-.26,11,11,0,0,1-.92,12.89Zm3-13.52a5,5,0,0,0,1.21-.17A5.48,5.48,0,0,0,140,309l-2.15,1.57A13.38,13.38,0,0,0,136.48,306.93Zm18-12.83a1.09,1.09,0,0,0-.3,1.31,2.3,2.3,0,0,1-2,3.26,1.11,1.11,0,0,0-.81.4,1.16,1.16,0,0,0-.22.88,3.18,3.18,0,0,1,.06.62,3.4,3.4,0,0,1-3.4,3.39,2.94,2.94,0,0,1-.72-.08,1.12,1.12,0,0,0-.82.15,1.09,1.09,0,0,0-.47.68,3.4,3.4,0,0,1-6.22,1.05,5,5,0,0,0,1.66-2.68,6.35,6.35,0,0,0,4-.36,1.08,1.08,0,1,0-.85-2,4.17,4.17,0,0,1-3.57-.11,1.09,1.09,0,0,0-1.57,1.05,2.86,2.86,0,0,1-1.72,2.86,2.82,2.82,0,0,1-2.31,0,1.07,1.07,0,0,0-1.41.54,1.54,1.54,0,0,1-2.7.18,1.08,1.08,0,0,0-1.75-.09,1.61,1.61,0,0,1-.59.44,1.54,1.54,0,0,1-2-.8,1.29,1.29,0,0,1-.1-.35,1.08,1.08,0,0,0-1.69-.7,3.73,3.73,0,0,1-.78.44,4.2,4.2,0,0,1-5.52-2.19,1.07,1.07,0,0,0-1.42-.56,1.06,1.06,0,0,0-.56,1.41,6.36,6.36,0,0,0,8.36,3.32h0a3.65,3.65,0,0,0,1.63,1.4,4.2,4.2,0,0,1-7-.58,1.08,1.08,0,0,0-.79-.55,1.11,1.11,0,0,0-.92.31,2.62,2.62,0,0,1-3.7,0,1.08,1.08,0,0,0-1.76.38,1.57,1.57,0,0,1-1.47,1,1.59,1.59,0,0,1-1.59-1.59,1.57,1.57,0,0,1,.17-.7,1.06,1.06,0,0,0,0-1,1.08,1.08,0,0,0-.79-.57,4.84,4.84,0,0,1,.06-9.57,1.06,1.06,0,0,0,.8-.56,1.08,1.08,0,0,0,0-1,2.17,2.17,0,0,1-.24-1A2.26,2.26,0,0,1,111.7,290a2.23,2.23,0,0,1,1.51.58,1.06,1.06,0,0,0,1,.25,1,1,0,0,0,.76-.62,4.2,4.2,0,0,1,6.78-1.36,1.08,1.08,0,0,0,1.77-.41,2.31,2.31,0,0,1,2.17-1.53,2.15,2.15,0,0,1,.71.11,1.08,1.08,0,0,0,1-.15,1.07,1.07,0,0,0,.45-.87,4.2,4.2,0,0,1,7.44-2.66,1.07,1.07,0,0,0,1,.37,1.09,1.09,0,0,0,.83-.71,2.87,2.87,0,0,1,4.83-1,1.08,1.08,0,0,0,1.51.07,1.53,1.53,0,0,1,2.55.9,1.11,1.11,0,0,0,.58.8,1.08,1.08,0,0,0,1,0,1.65,1.65,0,0,1,.72-.17,1.54,1.54,0,0,1,1.54,1.54,1.61,1.61,0,0,1,0,.37,1.08,1.08,0,0,0,1.27,1.3,4.41,4.41,0,0,1,.89-.09,4.19,4.19,0,0,1,2.61,7.48Z" transform="translate(-84.7 -261.83)"/><path class="cls-2" d="M145.83,292.24l-.33.14a4.69,4.69,0,0,0-6-2.09,5.08,5.08,0,0,0-.85.49,4.68,4.68,0,0,0-6.86.67,6.5,6.5,0,0,0-8.21,6.79,1.07,1.07,0,0,0,1.07,1h.09a1.08,1.08,0,0,0,1-1.16,4.34,4.34,0,0,1,6.09-4.32,1.08,1.08,0,0,0,1.42-.54,2.48,2.48,0,0,1,1.29-1.26,2.51,2.51,0,0,1,3.12,1,1.08,1.08,0,0,0,.85.5,1.09,1.09,0,0,0,.9-.4,2.46,2.46,0,0,1,1-.73,2.52,2.52,0,0,1,3.48,1.88,1.08,1.08,0,0,0,.65.82,1.11,1.11,0,0,0,1-.12,5.48,5.48,0,0,1,1.13-.64,1.08,1.08,0,1,0-.85-2Z" transform="translate(-84.7 -261.83)"/></svg>